PathFileType  4	(X/Y/Z) C:\Users\antoi\Documents\MyRepositories\mobilecap\ResultsAnalysis
DataRate	CameraRate	NumFrames	NumMarkers	Units	OrigDataRate	OrigDataStartFrame	OrigNumFrames
100.0	100.0	4	51	mm	100.0	36	143
Frame#	Time	r_knee			r_shank_antsup			r_ankle			r_calc			r_5meta			r_toe			L_knee			L_shank_antsup			L_ankle			L_calc			L_5meta			L_toe			r_sh2			r_sh3			r_sh4			L_sh2			L_sh3			r_thigh1			r_thigh2			r_thigh3			r_thigh4			r_thigh5			L_thigh1			L_thigh2			L_thigh3			L_thigh4			r.ASIS			r.PSIS			L.ASIS			L.PSIS			C7			R_Shoulder			L_Shoulder			R_Sternum			L_Sternum			R_humerus			R_elbow_med			R_elbow_lat			R_forearm			R_wrist_radius			R_wrist_ulna			L_humerus			L_elbow_med			L_elbow_lat			L_forearm			L_wrist_radius			L_wrist_ulna			R_HJC			L_HJC			R_HJC_reg			L_HJC_reg			
		X1	Y1	Z1	X2	Y2	Z2	X3	Y3	Z3	X4	Y4	Z4	X5	Y5	Z5	X6	Y6	Z6	X7	Y7	Z7	X8	Y8	Z8	X9	Y9	Z9	X10	Y10	Z10	X11	Y11	Z11	X12	Y12	Z12	X13	Y13	Z13	X14	Y14	Z14	X15	Y15	Z15	X16	Y16	Z16	X17	Y17	Z17	X18	Y18	Z18	X19	Y19	Z19	X20	Y20	Z20	X21	Y21	Z21	X22	Y22	Z22	X23	Y23	Z23	X24	Y24	Z24	X25	Y25	Z25	X26	Y26	Z26	X27	Y27	Z27	X28	Y28	Z28	X29	Y29	Z29	X30	Y30	Z30	X31	Y31	Z31	X32	Y32	Z32	X33	Y33	Z33	X34	Y34	Z34	X35	Y35	Z35	X36	Y36	Z36	X37	Y37	Z37	X38	Y38	Z38	X39	Y39	Z39	X40	Y40	Z40	X41	Y41	Z41	X42	Y42	Z42	X43	Y43	Z43	X44	Y44	Z44	X45	Y45	Z45	X46	Y46	Z46	X47	Y47	Z47	X48	Y48	Z48	X49	Y49	Z49	X50	Y50	Z50	X51	Y51	Z51	

36	0.35000000	157.27371	500.18202	-40.63438	188.05099	401.76572	-51.65088	96.71960	90.09057	-97.65577	37.92619	61.41639	-152.23355	216.25573	41.78709	-59.59072	250.78794	73.25123	-113.54884	331.24616	522.70180	-304.84254	354.79888	430.55074	-289.46703	185.31338	139.80710	-281.29083	105.99626	115.43601	-228.79520	269.27550	54.03793	-318.69127	324.60006	72.67124	-266.78852	174.12943	290.51088	-65.67694	121.16480	405.18875	-16.58717	99.22953	292.53256	-26.94751	282.92182	468.80241	-329.63039	236.98225	356.69234	-334.76986	209.65937	780.57252	-0.99347	218.84603	671.14168	-20.99546	164.69165	638.82920	6.90797	96.84984	765.81046	15.16520	111.36629	654.08960	-10.13245	304.37834	776.62128	-324.89830	369.03836	654.68049	-298.97123	214.16100	722.36105	-360.30543	273.03350	607.86701	-326.78032	237.75640	974.24498	-39.75224	33.02098	1003.92679	-138.51843	250.54260	968.68642	-292.73564	44.26649	997.88557	-232.64163	76.87067	1460.22361	-174.00011	145.99626	1432.04156	-6.97806	162.59144	1427.99695	-326.10501	202.19465	1390.98494	-145.37950	202.42195	1391.03645	-190.98796	193.19293	1303.83035	42.42884	117.44411	1098.96398	13.81412	131.06398	1110.54918	77.88580	195.74425	1053.26279	95.50806	272.66712	902.33262	64.14840	236.63639	895.23863	101.18361	191.18655	1287.86109	-385.59603	125.13697	1089.91685	-332.42225	135.38481	1099.22061	-410.78877	184.90619	1044.68654	-429.05679	241.88480	875.11960	-416.08626	203.60637	876.88985	-449.59113	154.80524	885.96991	-69.84920	169.80319	881.41138	-258.76409	160.43734	901.02634	-79.98500	180.23698	890.38942	-245.69022	
37	0.36000000	160.52191	499.90242	-40.13236	190.51238	401.37154	-51.44361	97.10147	90.37531	-98.00972	37.99886	61.68461	-152.46182	216.25668	41.72806	-59.48300	251.16306	73.03373	-113.52391	345.84534	523.96521	-302.91944	374.18053	433.66149	-287.34267	223.36447	132.94419	-281.33517	145.10941	104.01605	-229.43671	312.18249	51.99208	-318.43965	366.07986	73.16996	-266.10457	175.81625	290.22773	-65.63378	123.78478	405.17718	-16.24437	101.04947	292.67124	-26.74398	300.34258	467.19603	-328.45636	261.99937	352.50173	-334.21094	216.74863	779.72102	0.08518	224.46284	670.21828	-20.15542	169.81525	638.61808	7.58133	103.91679	766.31626	15.87263	116.68550	654.39522	-9.38625	316.16820	777.25926	-323.27846	381.39585	655.69850	-296.93534	226.60544	722.37117	-359.18102	286.16366	608.05314	-325.25280	247.23753	973.64675	-38.06639	43.36261	1003.98692	-138.05589	261.82661	968.91504	-291.11960	55.09163	997.79235	-231.94814	88.40861	1460.12500	-175.56293	157.17981	1433.25580	-8.10937	174.54858	1426.39682	-327.10333	213.66495	1391.03318	-145.99209	213.94777	1390.62994	-191.59266	204.89972	1305.54897	42.12634	129.93782	1100.06409	15.20752	144.04469	1112.07032	79.05450	209.37989	1055.48956	96.36091	287.54164	905.19412	64.97848	251.94010	897.91657	102.31834	203.23771	1285.91531	-385.55625	137.31899	1088.13306	-331.84007	147.50718	1097.14465	-410.13905	196.91912	1042.71465	-428.48162	254.32448	873.30896	-415.17856	215.83507	874.83504	-448.46783	164.56983	885.56207	-68.93794	180.74211	881.52777	-257.76772	170.06063	901.23959	-78.66245	190.75878	890.30895	-244.34074	
38	0.37000000	164.08529	499.47195	-39.83252	193.23787	400.86121	-51.50629	97.53052	90.69197	-98.52961	38.08160	61.90683	-152.81738	216.25378	41.70979	-59.42732	251.56500	72.78501	-113.56674	359.92437	524.65560	-301.19846	392.84657	436.50494	-285.41636	261.36664	126.94085	-281.40026	184.35254	93.64258	-230.12770	354.82626	50.95184	-317.96331	407.02777	74.70018	-265.21196	177.69870	289.84176	-65.86797	126.70753	405.04998	-16.08722	103.13172	292.71609	-26.71130	317.33229	465.26324	-327.50841	286.72832	348.43544	-333.79855	224.02732	778.70050	1.04448	230.32209	669.15995	-19.50451	175.27210	638.22659	8.13886	111.18150	766.57775	16.70406	122.27059	654.46235	-8.66115	327.79028	777.31333	-321.40110	393.40141	656.02851	-294.76511	238.90381	722.05573	-358.19538	298.96462	607.78946	-323.99319	256.63935	972.82396	-36.30924	53.73268	1003.72136	-137.63594	273.19893	968.82494	-289.40707	65.96151	997.42649	-231.29710	100.00470	1459.71008	-177.25842	168.40443	1434.14658	-9.34797	186.63315	1424.37731	-328.18778	225.20317	1390.73575	-146.68699	225.54170	1389.86133	-192.28105	216.64429	1306.91842	41.67521	142.43479	1100.86640	16.49859	157.02725	1113.31543	80.12752	223.01936	1057.40178	97.12536	302.31169	907.68915	65.74891	267.17675	900.28118	103.39786	215.43090	1283.52971	-385.56644	149.53477	1085.91134	-331.41215	159.72052	1094.68659	-409.66411	209.10383	1040.33981	-427.97883	266.90747	871.09440	-414.33909	228.24494	872.38121	-447.46192	174.30405	884.89883	-67.97713	191.76332	881.33988	-256.70135	179.72420	901.08698	-77.30733	201.35321	889.95531	-242.95709	
39	0.38000000	167.92856	498.88678	-39.72567	196.17315	400.22757	-51.77981	97.98879	91.03775	-99.22056	38.20580	62.06066	-153.29945	216.25206	41.73641	-59.42242	251.94471	72.49400	-113.67746	373.51674	524.79935	-299.70508	410.75838	439.06629	-283.74408	299.11662	121.87391	-281.47720	223.52664	84.39674	-230.81630	396.99624	50.96483	-317.21149	447.24667	77.36723	-264.08455	179.73907	289.35049	-66.32856	129.84022	404.81115	-16.11988	105.38500	292.67264	-26.87044	333.89572	463.05139	-326.79132	311.02968	344.55561	-333.52020	231.53389	777.49473	1.88955	236.45957	667.94336	-18.97944	181.05433	637.63719	8.58061	118.62585	766.61259	17.64328	128.12372	654.31217	-7.99200	339.27905	776.85181	-319.25395	405.14359	655.76093	-292.44415	251.13240	721.45970	-357.37366	311.47961	607.16569	-323.00165	265.97836	971.80901	-34.47452	64.14190	1003.10574	-137.28281	284.65401	968.40164	-287.57480	76.88581	996.74832	-230.71400	111.67095	1458.98173	-179.08950	179.66740	1434.72046	-10.69892	198.84892	1421.95618	-329.35904	236.82223	1390.09821	-147.46814	237.21539	1388.73954	-193.05645	228.43257	1307.94369	41.06549	154.91630	1101.37745	17.67374	170.01223	1114.28613	81.09075	236.64126	1059.00149	97.80102	316.95954	909.82825	66.45537	282.32034	902.33764	104.41879	227.76492	1280.72317	-385.62953	161.79103	1083.27851	-331.13864	172.02174	1091.86548	-409.36745	221.46511	1037.58054	-427.55296	279.62230	868.49238	-413.55410	240.83526	869.55192	-446.56493	184.02680	883.99332	-66.95011	202.89609	880.82328	-255.54434	189.45065	900.58116	-75.89392	212.03953	889.31523	-241.50233	
